<?xml version="1.0" standalone="no"?>
<!DOCTYPE svg PUBLIC "-//W3C//DTD SVG 20010904//EN"
 "http://www.w3.org/TR/2001/REC-SVG-20010904/DTD/svg10.dtd">
<svg version="1.0" xmlns="http://www.w3.org/2000/svg"
 width="220.000000pt" height="220.000000pt" viewBox="0 0 220.000000 220.000000"
 preserveAspectRatio="xMidYMid meet">
<metadata>
Created by potrace 1.11, written by Peter Selinger 2001-2013
</metadata>
<g transform="translate(0.000000,220.000000) scale(0.100000,-0.100000)"
fill="#000000" stroke="none">
<path d="M1365 2126 c-8 -6 -17 -20 -19 -31 -17 -95 -17 -96 -34 -91 -77 23
-231 31 -317 16 -39 -6 -79 -13 -90 -15 -11 -2 -22 -4 -25 -5 -3 -1 -8 -2 -12
-1 -5 0 -8 -4 -8 -10 0 -5 -4 -8 -8 -5 -5 3 -37 -8 -71 -24 -295 -140 -478
-429 -472 -745 3 -181 53 -319 178 -495 24 -32 113 -117 155 -145 48 -33 164
-91 198 -100 9 -2 85 -26 100 -32 20 -7 59 -13 89 -13 14 0 28 -6 33 -12 5 -8
8 -9 8 -2 0 7 23 12 57 13 82 2 139 11 212 33 73 22 170 66 189 85 7 7 20 13
28 13 8 0 12 5 9 10 -3 6 1 10 9 10 23 0 159 138 200 203 39 61 99 187 89 187
-3 0 -1 6 5 13 6 7 13 25 16 40 3 15 9 39 13 55 4 15 7 79 7 142 0 98 -3 140
-18 205 -1 6 -12 41 -25 78 -29 85 -24 91 67 93 37 1 69 2 72 3 3 0 5 19 5 40
l0 39 -98 -2 c-70 -1 -100 -5 -106 -15 -6 -10 -17 -2 -39 30 -16 24 -39 53
-50 65 -11 11 -23 30 -27 42 -3 12 -21 28 -39 36 -17 7 -38 20 -46 27 -15 15
-78 56 -115 74 -18 10 -34 52 -49 133 -12 61 -38 83 -71 58z"/>
<path d="M1135 381 c-3 -5 -2 -12 3 -15 5 -3 9 1 9 9 0 17 -3 19 -12 6z"/>
<path d="M1164 362 c1 -17 19 -17 24 0 3 10 1 10 -6 -1 -9 -12 -11 -12 -14 0
-3 9 -5 10 -4 1z"/>
<path d="M870 360 c0 -5 5 -10 11 -10 5 0 7 5 4 10 -3 6 -8 10 -11 10 -2 0 -4
-4 -4 -10z"/>
<path d="M935 360 c-2 -3 5 -6 15 -7 11 -1 22 2 24 5 3 4 -4 8 -15 8 -11 0
-22 -3 -24 -6z"/>
<path d="M998 361 c10 -6 8 -10 -10 -16 -43 -13 -52 -14 -72 -3 l-21 11 20
-20 c11 -11 25 -18 30 -15 17 11 35 11 35 1 0 -6 -7 -9 -16 -7 -10 2 -19 -3
-21 -10 -3 -7 1 -10 10 -6 9 3 20 -2 26 -15 11 -19 1 -37 -13 -24 -11 11 -36
12 -36 1 0 -7 -4 -7 -12 -1 -16 12 -49 13 -42 1 3 -4 -2 -5 -12 -1 -15 5 -15
7 0 15 9 5 13 15 10 21 -5 8 -3 8 7 0 7 -7 18 -13 23 -13 6 0 4 5 -4 11 -13 9
-13 10 0 6 8 -2 14 -10 13 -16 -3 -12 10 -15 20 -5 11 11 -5 34 -25 34 -10 0
-17 4 -13 9 8 15 -14 24 -29 12 -7 -6 -17 -7 -21 -3 -5 4 -5 1 -1 -5 4 -8 1
-13 -8 -13 -9 0 -16 -4 -16 -10 0 -5 7 -6 17 -3 12 5 14 3 8 -7 -6 -9 -4 -11
5 -5 8 5 11 4 6 -3 -9 -14 -46 -11 -46 4 0 7 -7 14 -15 18 -17 6 -35 -22 -27
-44 4 -13 3 -13 -10 -2 -17 14 -34 1 -23 -17 7 -13 48 -10 57 3 5 7 13 3 22
-9 14 -19 14 -19 13 -1 -1 10 5 21 13 23 11 3 12 2 3 -4 -10 -7 -10 -13 2 -29
14 -18 14 -18 8 4 -3 13 -1 22 6 22 7 0 10 -4 6 -9 -3 -6 4 -8 17 -5 72 16 72
16 58 -1 -8 -10 -9 -15 -1 -15 6 0 11 5 11 11 0 5 4 8 9 4 5 -3 12 -1 16 5 4
6 11 7 17 4 7 -4 8 -2 4 4 -4 7 -2 12 4 12 6 0 8 4 5 10 -3 5 3 17 14 27 11 9
18 20 15 25 -3 4 -2 8 3 9 48 4 58 12 38 29 -13 11 -14 10 -9 -4 4 -9 3 -16
-2 -15 -15 4 -64 -13 -60 -20 3 -4 0 -13 -6 -21 -8 -13 -9 -12 -5 1 3 9 1 21
-5 27 -6 6 -1 12 16 16 32 8 34 21 4 23 -16 2 -19 0 -10 -6z m-111 -44 c0 -7
-9 -14 -19 -14 -16 -2 -17 1 -8 13 15 18 27 18 27 1z m-66 -49 c6 1 8 -2 4 -8
-3 -6 -11 -8 -16 -4 -5 3 -16 1 -23 -5 -13 -11 -13 -9 -7 44 1 6 9 1 17 -10 8
-11 20 -19 25 -17z m-66 -18 c3 -5 1 -10 -4 -10 -6 0 -11 5 -11 10 0 6 2 10 4
10 3 0 8 -4 11 -10z m155 6 c0 -2 -7 -7 -16 -10 -8 -3 -12 -2 -9 4 6 10 25 14
25 6z"/>
<path d="M1104 359 c-3 -6 -1 -16 5 -22 9 -9 10 -7 5 7 -6 15 -4 17 6 11 9 -5
11 -4 6 3 -9 15 -13 15 -22 1z"/>
<path d="M1234 351 c20 -22 8 -36 -33 -38 -47 -2 -25 12 24 16 5 1 5 5 -1 11
-7 7 -20 6 -40 -5 -26 -13 -29 -13 -32 0 -2 8 -8 13 -13 9 -5 -3 -7 -9 -5 -13
3 -4 -14 -6 -37 -5 -35 1 -46 -3 -65 -27 -13 -16 -18 -29 -12 -29 9 0 9 -5 -1
-17 -7 -10 -9 -15 -5 -11 5 4 15 0 22 -10 9 -11 13 -13 14 -4 0 7 5 10 10 7 6
-4 8 -10 6 -14 -3 -4 1 -8 9 -8 13 0 12 3 -1 18 -9 10 -21 16 -27 12 -6 -4 -7
-1 -2 7 5 8 4 11 -3 6 -14 -8 -9 21 6 36 6 6 21 12 32 13 19 2 19 1 3 -17 -13
-14 -13 -18 -2 -18 11 0 11 -2 -1 -11 -12 -9 -12 -10 3 -5 10 3 20 6 23 6 2 0
1 6 -1 13 -3 6 -1 19 5 27 8 13 11 12 24 -5 8 -11 12 -23 10 -27 -3 -5 2 -8
10 -8 19 0 17 20 -4 39 -8 7 -3 6 13 -3 15 -9 27 -12 27 -6 0 5 5 10 11 10 5
0 8 -4 4 -9 -3 -5 -1 -12 4 -15 5 -4 12 2 14 11 4 17 5 17 6 0 0 -10 5 -16 10
-13 5 3 11 -2 13 -12 3 -11 0 -19 -8 -19 -7 0 -13 3 -12 6 2 19 -4 22 -19 10
-9 -8 -14 -9 -10 -3 3 6 0 11 -8 11 -8 0 -11 -5 -8 -10 3 -6 1 -7 -5 -3 -6 3
-13 2 -17 -4 -4 -6 -12 -7 -18 -3 -19 12 -38 12 -31 1 4 -6 2 -8 -4 -4 -6 3
-14 1 -18 -5 -4 -8 -3 -9 4 -5 7 4 12 2 12 -3 0 -6 6 -10 13 -9 6 2 11 -3 9
-10 -1 -8 2 -11 9 -7 8 5 8 10 0 18 -15 15 -14 30 2 20 6 -4 21 -8 32 -8 11
-1 19 -6 18 -13 -2 -7 2 -12 8 -12 6 0 9 7 6 15 -4 8 -2 17 3 20 6 4 10 2 10
-4 0 -5 8 -10 18 -10 23 0 44 -5 62 -15 12 -7 13 -6 3 5 -7 7 -13 17 -13 22 0
6 5 5 13 0 6 -6 24 -9 40 -8 15 1 27 -3 27 -8 0 -6 3 -7 6 -4 4 4 1 14 -7 23
-13 16 -12 16 6 7 11 -6 27 -8 35 -6 10 3 8 -1 -4 -11 -11 -9 -15 -16 -9 -16
7 0 15 5 18 10 9 14 27 1 19 -13 -4 -7 -1 -7 7 1 12 11 11 15 -3 23 -25 14
-23 33 1 19 25 -13 37 3 21 27 -9 16 -10 15 -5 -4 5 -18 3 -22 -9 -17 -9 3
-16 12 -16 19 0 8 -5 17 -11 21 -7 4 -9 0 -5 -13 4 -13 0 -25 -10 -34 -15 -12
-16 -11 -10 8 5 16 1 25 -16 37 -12 9 -27 16 -33 16 -5 0 -3 -5 5 -10 8 -5 13
-10 10 -11 -3 0 -16 -2 -29 -5 -19 -3 -21 -2 -13 9 9 10 8 18 -2 32 -10 14
-15 15 -21 5 -5 -8 -4 -11 3 -6 7 4 10 -1 9 -14 -1 -11 -5 -20 -10 -20 -5 0
-4 -7 3 -15 6 -8 15 -14 18 -13 17 2 32 -3 32 -10 0 -4 -11 -8 -24 -8 -14 0
-23 3 -20 7 2 4 0 10 -6 14 -5 3 -10 -1 -10 -10 0 -9 -4 -13 -10 -10 -6 4 -7
-1 -3 -12 3 -10 3 -15 -1 -12 -15 14 -16 57 -1 63 8 3 15 11 15 17 0 7 -8 6
-24 -4 -23 -15 -24 -15 -19 3 3 11 10 17 17 13 6 -3 8 -3 4 2 -4 4 0 14 10 22
15 13 15 13 -5 3 -21 -10 -27 -7 -25 11 1 3 -6 6 -14 6 -12 0 -12 -2 0 -16z
m156 -71 c0 -14 -15 -19 -29 -10 -17 10 -5 31 14 23 8 -3 15 -9 15 -13z"/>
<path d="M755 330 c-3 -5 -4 -10 0 -10 3 0 0 -10 -6 -22 -8 -17 -8 -20 0 -12
6 6 13 20 16 32 4 23 0 28 -10 12z"/>
<path d="M795 320 c3 -5 8 -10 11 -10 2 0 4 5 4 10 0 6 -5 10 -11 10 -5 0 -7
-4 -4 -10z"/>
<path d="M1390 319 c0 -5 5 -7 10 -4 6 3 10 8 10 11 0 2 -4 4 -10 4 -5 0 -10
-5 -10 -11z"/>
<path d="M655 300 c-3 -5 -1 -10 4 -10 6 0 11 5 11 10 0 6 -2 10 -4 10 -3 0
-8 -4 -11 -10z"/>
<path d="M1470 299 c0 -5 5 -7 10 -4 6 3 10 8 10 11 0 2 -4 4 -10 4 -5 0 -10
-5 -10 -11z"/>
<path d="M1587 299 c7 -7 15 -10 18 -7 3 3 -2 9 -12 12 -14 6 -15 5 -6 -5z"/>
<path d="M695 289 c-4 -6 -5 -12 -2 -15 2 -3 7 2 10 11 7 17 1 20 -8 4z"/>
<path d="M1051 287 c-6 -8 -8 -17 -4 -20 11 -12 19 -7 20 13 2 24 -1 25 -16 7z"/>
<path d="M1544 278 l-19 -23 23 19 c12 11 22 21 22 23 0 8 -8 2 -26 -19z"/>
<path d="M716 275 c-9 -26 -7 -32 5 -12 6 10 9 21 6 23 -2 3 -7 -2 -11 -11z"/>
<path d="M944 278 c-4 -7 -4 -10 1 -6 4 4 14 3 22 -4 11 -8 12 -7 7 6 -7 19
-20 21 -30 4z"/>
<path d="M1112 281 c4 -13 18 -16 19 -4 0 4 -5 9 -11 12 -7 2 -11 -2 -8 -8z"/>
<path d="M1490 275 c0 -8 2 -15 4 -15 2 0 6 7 10 15 3 8 1 15 -4 15 -6 0 -10
-7 -10 -15z"/>
<path d="M631 267 c-8 -10 -7 -14 2 -14 8 0 14 6 14 14 0 7 -1 13 -2 13 -2 0
-8 -6 -14 -13z"/>
<path d="M666 263 c-6 -14 -5 -15 5 -6 7 7 10 15 7 18 -3 3 -9 -2 -12 -12z"/>
<path d="M470 259 c0 -5 5 -7 10 -4 6 3 10 8 10 11 0 2 -4 4 -10 4 -5 0 -10
-5 -10 -11z"/>
<path d="M1736 262 c-3 -4 4 -9 15 -9 23 -2 25 3 4 10 -8 4 -16 3 -19 -1z"/>
<path d="M554 240 c0 -13 4 -16 10 -10 7 7 7 13 0 20 -6 6 -10 3 -10 -10z"/>
<path d="M685 239 c-6 -8 -4 -10 5 -4 10 6 12 4 6 -11 -6 -15 -5 -17 5 -6 9 9
10 15 2 23 -8 8 -13 7 -18 -2z"/>
<path d="M1467 231 c-3 -13 0 -18 7 -15 7 3 13 11 13 19 0 22 -14 18 -20 -4z"/>
<path d="M1550 238 c0 -4 4 -8 9 -8 6 0 12 4 15 8 3 5 -1 9 -9 9 -8 0 -15 -4
-15 -9z"/>
<path d="M895 221 c-3 -5 0 -13 6 -17 7 -4 9 -3 5 4 -3 5 0 13 6 15 9 4 10 6
1 6 -6 1 -14 -3 -18 -8z"/>
<path d="M976 221 c-3 -5 1 -14 8 -20 10 -9 16 -9 21 -1 4 6 1 9 -7 8 -7 -2
-12 3 -10 10 2 14 -4 16 -12 3z"/>
<path d="M1000 226 c0 -2 7 -7 16 -10 8 -3 12 -2 9 4 -6 10 -25 14 -25 6z"/>
<path d="M793 205 c0 -8 4 -12 9 -9 5 3 6 10 3 15 -9 13 -12 11 -12 -6z"/>
</g>
</svg>
